<?xml version="1.0" standalone="no"?><!DOCTYPE svg PUBLIC "-//W3C//DTD SVG 1.1//EN" "http://www.w3.org/Graphics/SVG/1.1/DTD/svg11.dtd"><svg class="icon" width="200px" height="200.00px" viewBox="0 0 1024 1024" version="1.1" xmlns="http://www.w3.org/2000/svg"><path d="M459.648 192C488.533333 192 512 220.672 512 256v554.666667c0 35.328-23.466667 64-52.352 64h-23.466667c-18.517333 0-36.266667-8.96-49.365333-25.002667l-133.632-163.328c-13.098667-16-30.848-25.002667-49.365333-25.002667h-40.917334c-19.285333 0-34.901333-19.114667-34.901333-42.666666v-170.666667c0-23.552 15.616-42.666667 34.901333-42.666667h40.917334c18.517333 0 36.266667-8.96 49.365333-25.002666l133.632-163.328c13.098667-16 30.848-25.002667 49.365333-25.002667h23.466667zM448 256h-11.050667c0.384 0.042667 0.426667 0.170667 0.128 0.597333l-134.4 164.266667C277.888 451.285333 242.218667 469.333333 203.861333 469.333333H192v128h11.818667c35.413333 0 68.522667 15.36 92.970666 41.685334l5.930667 6.784 133.632 163.328c0.981333 1.194667 1.152 1.450667 0.597333 1.536h11.050667V256z m126.72 105.386667a32 32 0 0 1 45.226667 0L725.333333 466.730667l105.386667-105.386667a32 32 0 0 1 41.642667-3.072l3.584 3.114667a32 32 0 0 1 0 45.226666L770.602667 512l105.386666 105.386667a32 32 0 0 1 3.072 41.642666l-3.114666 3.584a32 32 0 0 1-45.226667 0L725.333333 557.269333l-105.386666 105.386667a32 32 0 0 1-41.642667 3.072l-3.584-3.114667a32 32 0 0 1 0-45.226666L680.064 512l-105.386667-105.386667a32 32 0 0 1-3.072-41.642666l3.114667-3.584z" /></svg>