<?xml version="1.0" standalone="no"?><!DOCTYPE svg PUBLIC "-//W3C//DTD SVG 1.1//EN" "http://www.w3.org/Graphics/SVG/1.1/DTD/svg11.dtd"><svg class="icon" width="200px" height="200.00px" viewBox="0 0 1024 1024" version="1.1" xmlns="http://www.w3.org/2000/svg"><path d="M333.824 128c16.213333 0 32.085333 4.821333 45.781333 13.909333l441.642667 292.48c40.448 26.794667 52.778667 83.242667 27.477333 126.122667-6.954667 11.776-16.341333 21.76-27.477333 29.098667l-441.6 292.48c-40.490667 26.794667-93.781333 13.738667-119.04-29.098667a95.573333 95.573333 0 0 1-13.141333-48.512V219.52C247.466667 168.96 286.122667 128 333.824 128z m0 64c-11.52 0-22.357333 11.52-22.357333 27.52v584.96a31.573333 31.573333 0 0 0 4.266666 15.957333c6.826667 11.648 18.986667 14.592 28.586667 8.277334l441.6-292.48a25.173333 25.173333 0 0 0 7.68-8.234667c8.149333-13.824 4.096-32.426667-7.68-40.234667L344.32 195.285333a18.858667 18.858667 0 0 0-10.496-3.285333z" /></svg>