<?xml version="1.0" standalone="no"?><!DOCTYPE svg PUBLIC "-//W3C//DTD SVG 1.1//EN" "http://www.w3.org/Graphics/SVG/1.1/DTD/svg11.dtd"><svg class="icon" width="200px" height="200.00px" viewBox="0 0 1024 1024" version="1.1" xmlns="http://www.w3.org/2000/svg"><path d="M298.026667 128c15.872 0 31.402667 4.821333 44.885333 13.909333l432.981333 292.48c2.730667 1.834667 5.333333 3.84 7.850667 5.973334L783.701333 204.8a32 32 0 1 1 64 0v614.4a32 32 0 0 1-64 0v-235.562667c-2.474667 2.133333-5.12 4.138667-7.808 5.973334L342.912 882.090667c-39.68 26.794667-91.904 13.738667-116.693333-29.098667A97.066667 97.066667 0 0 1 213.333333 804.48V219.52C213.333333 168.96 251.264 128 298.026667 128z m0 64c-10.24 0-20.693333 11.264-20.693334 27.52v584.96c0 5.973333 1.536 11.690667 4.266667 16.469333 6.485333 11.178667 17.024 13.824 25.472 8.106667l432.981333-292.48a24.490667 24.490667 0 0 0 7.338667-8.106667c8.192-14.165333 4.096-33.322667-7.338667-41.045333L307.072 194.944a16.128 16.128 0 0 0-9.045333-2.944z" /></svg>