<?xml version="1.0" standalone="no"?><!DOCTYPE svg PUBLIC "-//W3C//DTD SVG 1.1//EN" "http://www.w3.org/Graphics/SVG/1.1/DTD/svg11.dtd"><svg class="icon" width="200px" height="200.00px" viewBox="0 0 1024 1024" version="1.1" xmlns="http://www.w3.org/2000/svg"><path d="M384 170.666667a85.333333 85.333333 0 0 1 85.333333 85.333333v512a85.333333 85.333333 0 0 1-85.333333 85.333333H256a85.333333 85.333333 0 0 1-85.333333-85.333333V256a85.333333 85.333333 0 0 1 85.333333-85.333333h128z m0 64H256a21.333333 21.333333 0 0 0-21.333333 21.333333v512a21.333333 21.333333 0 0 0 21.333333 21.333333h128a21.333333 21.333333 0 0 0 21.333333-21.333333V256a21.333333 21.333333 0 0 0-21.333333-21.333333zM768 170.666667a85.333333 85.333333 0 0 1 85.333333 85.333333v512a85.333333 85.333333 0 0 1-85.333333 85.333333h-128a85.333333 85.333333 0 0 1-85.333333-85.333333V256a85.333333 85.333333 0 0 1 85.333333-85.333333h128z m0 64h-128a21.333333 21.333333 0 0 0-21.333333 21.333333v512a21.333333 21.333333 0 0 0 21.333333 21.333333h128a21.333333 21.333333 0 0 0 21.333333-21.333333V256a21.333333 21.333333 0 0 0-21.333333-21.333333z" /></svg>