<?xml version="1.0" standalone="no"?><!DOCTYPE svg PUBLIC "-//W3C//DTD SVG 1.1//EN" "http://www.w3.org/Graphics/SVG/1.1/DTD/svg11.dtd"><svg t="1705486675640" class="icon" viewBox="0 0 1024 1024" version="1.1" xmlns="http://www.w3.org/2000/svg" p-id="41608" xmlns:xlink="http://www.w3.org/1999/xlink" width="200" height="200"><path d="M809.984 214.016a25.6 25.6 0 0 0-35.84 0 25.6 25.6 0 0 0 0 36.352A370.688 370.688 0 1 1 230.4 271.36L307.2 346.624a14.336 14.336 0 0 0 24.064-7.168l42.496-232.96a13.824 13.824 0 0 0-15.36-16.384l-232.448 44.032a14.336 14.336 0 0 0-7.68 24.064l76.288 76.8a421.888 421.888 0 1 0 616.96-22.016z" p-id="41609"></path></svg>