<?xml version="1.0" standalone="no"?><!DOCTYPE svg PUBLIC "-//W3C//DTD SVG 1.1//EN" "http://www.w3.org/Graphics/SVG/1.1/DTD/svg11.dtd"><svg t="1705486184943" class="icon" viewBox="0 0 1024 1024" version="1.1" xmlns="http://www.w3.org/2000/svg" p-id="4291" xmlns:xlink="http://www.w3.org/1999/xlink" width="200" height="200"><path d="M527.914667 85.333333c29.184 0 55.466667 17.749333 66.304 44.842667l5.845333 14.592a85.333333 85.333333 0 0 0 41.386667 44.757333l40.32 19.882667a85.333333 85.333333 0 0 0 62.208 5.290667l13.226666-3.968a69.248 69.248 0 0 1 74.538667 23.893333l21.418667 27.52a73.813333 73.813333 0 0 1 6.613333 80.426667l-7.765333 14.336a85.333333 85.333333 0 0 0-8.32 59.221333l10.666666 47.829333a85.333333 85.333333 0 0 0 33.28 50.602667l12.373334 8.96a72.533333 72.533333 0 0 1 28.288 74.538667l-7.936 35.712a70.528 70.528 0 0 1-56.917334 54.186666l-14.037333 2.389334a85.333333 85.333333 0 0 0-52.906667 31.744l-29.013333 37.290666a85.333333 85.333333 0 0 0-17.792 57.258667l0.938667 16.426667a73.301333 73.301333 0 0 1-40.746667 69.888l-29.354667 14.506666c-25.813333 12.8-56.874667 8.32-78.08-11.221333l-10.666666-9.813333a85.333333 85.333333 0 0 0-57.813334-22.613334h-43.946666a85.333333 85.333333 0 0 0-57.813334 22.613334l-10.666666 9.813333a69.674667 69.674667 0 0 1-78.08 11.221333l-29.354667-14.506666a73.301333 73.301333 0 0 1-40.746667-69.888l0.938667-16.426667a85.333333 85.333333 0 0 0-17.792-57.258667l-29.013333-37.290666a85.333333 85.333333 0 0 0-52.906667-31.744l-14.037333-2.389334a70.528 70.528 0 0 1-56.917334-54.186666l-7.936-35.712a72.533333 72.533333 0 0 1 28.288-74.538667l12.373334-8.96a85.333333 85.333333 0 0 0 33.28-50.602667l10.666666-47.829333a85.333333 85.333333 0 0 0-8.32-59.221333L164.266667 342.613333a73.813333 73.813333 0 0 1 6.613333-80.426666l21.418667-27.562667a69.248 69.248 0 0 1 74.496-23.893333l13.269333 4.010666a85.333333 85.333333 0 0 0 62.208-5.290666l40.32-19.882667a85.333333 85.333333 0 0 0 41.386667-44.8l5.845333-14.506667A71.424 71.424 0 0 1 496.085333 85.333333h31.829334z m0 64h-31.829334a7.424 7.424 0 0 0-6.912 4.693334l-5.802666 14.506666A149.333333 149.333333 0 0 1 410.88 246.954667l-40.32 19.882666a149.333333 149.333333 0 0 1-108.8 9.216l-13.312-3.968a5.248 5.248 0 0 0-5.674667 1.834667l-21.376 27.52a9.813333 9.813333 0 0 0-0.896 10.666667l7.765334 14.336a149.333333 149.333333 0 0 1 14.506666 103.637333l-10.666666 47.786667a149.333333 149.333333 0 0 1-58.197334 88.576l-12.373333 8.96a8.533333 8.533333 0 0 0-3.370667 8.789333l7.936 35.712c0.597333 2.56 2.688 4.565333 5.290667 5.034667l13.994667 2.389333a149.333333 149.333333 0 0 1 92.672 55.509333l28.970666 37.290667a149.333333 149.333333 0 0 1 31.189334 100.224l-0.938667 16.426667a9.301333 9.301333 0 0 0 5.12 8.874666l29.44 14.506667c2.048 1.024 4.608 0.64 6.314667-0.938667l10.666666-9.813333a149.333333 149.333333 0 0 1 101.205334-39.509333h43.946666a149.333333 149.333333 0 0 1 101.205334 39.509333l10.666666 9.813333c1.706667 1.578667 4.266667 1.962667 6.357334 0.938667l29.354666-14.506667a9.301333 9.301333 0 0 0 5.162667-8.874666l-0.938667-16.426667a149.333333 149.333333 0 0 1 31.189334-100.224l29.013333-37.290667a149.333333 149.333333 0 0 1 92.586667-55.466666l14.08-2.432a6.528 6.528 0 0 0 5.248-5.034667l7.936-35.712a8.533333 8.533333 0 0 0-3.328-8.789333l-12.373334-8.96A149.333333 149.333333 0 0 1 791.893333 477.866667l-10.666666-47.829334a149.333333 149.333333 0 0 1 14.506666-103.637333l7.765334-14.336a9.813333 9.813333 0 0 0-0.853334-10.666667l-21.418666-27.52a5.248 5.248 0 0 0-5.674667-1.834666l-13.269333 3.968a149.333333 149.333333 0 0 1-108.842667-9.216l-40.32-19.882667a149.333333 149.333333 0 0 1-72.490667-78.336l-5.802666-14.549333a7.424 7.424 0 0 0-6.912-4.693334zM512 341.333333a170.666667 170.666667 0 1 1 0 341.333334 170.666667 170.666667 0 0 1 0-341.333334z m0 64a106.666667 106.666667 0 1 0 0 213.333334 106.666667 106.666667 0 0 0 0-213.333334z" p-id="4292"></path></svg>